<svg xmlns="http://www.w3.org/2000/svg" xmlns:xlink="http://www.w3.org/1999/xlink" width="1440" zoomAndPan="magnify" viewBox="0 0 1080 1079.999946" height="1440" preserveAspectRatio="xMidYMid meet" version="1.0"><defs><clipPath id="70061cf869"><path d="M 102.597656 84.375 L 977.597656 84.375 L 977.597656 411 L 102.597656 411 Z M 102.597656 84.375 " clip-rule="nonzero"/></clipPath><clipPath id="f9ee16e997"><path d="M 102.597656 670 L 977.597656 670 L 977.597656 996.875 L 102.597656 996.875 Z M 102.597656 670 " clip-rule="nonzero"/></clipPath><clipPath id="dbd0df6d7c"><path d="M 540 0 C 241.765625 0 0 241.765625 0 540 C 0 838.234375 241.765625 1080 540 1080 C 838.234375 1080 1080 838.234375 1080 540 C 1080 241.765625 838.234375 0 540 0 Z M 540 0 " clip-rule="nonzero"/></clipPath></defs><rect x="-108" width="1296" fill="#ffffff" y="-107.999995" height="1295.999935" fill-opacity="1"/><rect x="-108" width="1296" fill="#ffffff" y="-107.999995" height="1295.999935" fill-opacity="1"/><path fill="#000000" d="M 251.808594 410.890625 C 267.316406 376.359375 289.148438 344.574219 316.683594 317.011719 C 376.28125 257.347656 455.605469 224.402344 539.992188 224.402344 C 624.378906 224.402344 703.601562 257.242188 763.304688 317.011719 C 790.835938 344.574219 812.671875 376.359375 828.175781 410.890625 L 836.933594 410.890625 C 820.898438 374.25 798.113281 340.457031 768.894531 311.308594 C 707.714844 250.0625 626.386719 216.375 539.992188 216.375 C 453.601562 216.375 372.167969 250.167969 311.089844 311.414062 C 281.976562 340.5625 259.085938 374.355469 243.054688 410.996094 L 251.808594 410.996094 Z M 251.808594 410.890625 " fill-opacity="1" fill-rule="nonzero"/><path fill="#000000" d="M 828.175781 670.25 C 812.671875 704.78125 790.835938 736.566406 763.304688 764.128906 C 703.601562 823.792969 624.378906 856.742188 539.992188 856.742188 C 455.605469 856.742188 376.386719 823.898438 316.683594 764.128906 C 289.148438 736.566406 267.316406 704.78125 251.808594 670.25 L 243.054688 670.25 C 259.085938 706.890625 281.871094 740.683594 311.089844 769.832031 C 372.273438 831.078125 453.601562 864.765625 539.992188 864.765625 C 626.386719 864.765625 707.820312 830.972656 768.894531 769.726562 C 798.007812 740.578125 820.898438 706.785156 836.933594 670.144531 L 828.175781 670.144531 Z M 828.175781 670.25 " fill-opacity="1" fill-rule="nonzero"/><g clip-path="url(#70061cf869)"><path fill="#000000" d="M 111.304688 410.890625 C 115.839844 395.6875 121.21875 380.796875 127.441406 366.117188 C 150.015625 312.789062 182.292969 264.847656 223.433594 223.660156 C 264.570312 182.476562 312.460938 150.164062 365.730469 127.5625 C 420.902344 104.226562 479.550781 92.398438 539.992188 92.398438 C 600.4375 92.398438 659.085938 104.226562 714.253906 127.667969 C 767.523438 150.269531 815.414062 182.582031 856.554688 223.765625 C 897.691406 264.953125 929.96875 312.894531 952.542969 366.222656 C 958.765625 380.902344 964.148438 395.898438 968.683594 410.996094 L 977.015625 410.996094 C 972.164062 394.734375 966.46875 378.789062 959.824219 363.054688 C 936.828125 308.777344 904.019531 259.988281 862.144531 218.066406 C 820.371094 176.140625 771.636719 143.191406 717.417969 120.277344 C 661.195312 96.410156 601.492188 84.375 539.992188 84.375 C 478.496094 84.375 418.789062 96.410156 362.566406 120.277344 C 308.347656 143.300781 259.613281 176.140625 217.738281 218.066406 C 175.964844 259.882812 143.054688 308.671875 120.164062 362.949219 C 113.519531 378.683594 107.820312 394.628906 102.96875 410.890625 Z M 111.304688 410.890625 " fill-opacity="1" fill-rule="nonzero"/></g><g clip-path="url(#f9ee16e997)"><path fill="#000000" d="M 968.683594 670.25 C 964.148438 685.457031 958.765625 700.34375 952.542969 715.023438 C 929.96875 768.351562 897.691406 816.296875 856.554688 857.480469 C 815.414062 898.664062 767.523438 930.976562 714.253906 953.578125 C 659.085938 976.914062 600.4375 988.847656 539.992188 988.847656 C 479.550781 988.847656 420.902344 977.019531 365.730469 953.578125 C 312.460938 930.976562 264.570312 898.664062 223.433594 857.480469 C 182.292969 816.296875 150.015625 768.351562 127.441406 715.023438 C 121.21875 700.34375 115.839844 685.351562 111.304688 670.25 L 102.96875 670.25 C 107.820312 686.511719 113.519531 702.457031 120.164062 718.191406 C 143.160156 772.472656 175.964844 821.257812 217.84375 863.183594 C 259.71875 905.105469 308.453125 937.949219 362.671875 960.96875 C 418.894531 984.730469 478.496094 996.875 540.097656 996.875 C 601.703125 996.875 661.300781 984.835938 717.523438 960.96875 C 771.742188 937.949219 820.476562 905.105469 862.355469 863.183594 C 904.230469 821.257812 937.039062 772.46875 960.035156 718.191406 C 966.679688 702.457031 972.375 686.511719 977.226562 670.25 Z M 968.683594 670.25 " fill-opacity="1" fill-rule="nonzero"/></g><g clip-path="url(#dbd0df6d7c)"><path stroke-linecap="butt" transform="matrix(2.5, 0, 0, 2.5, 0.000027, -0.00002)" fill="none" stroke-linejoin="miter" d="M 216.000023 0.000008 C 96.706254 0.000008 -0.0000108 96.706273 -0.0000108 216.000042 C -0.0000108 335.29381 96.706254 432.000075 216.000023 432.000075 C 335.293791 432.000075 432.000056 335.29381 432.000056 216.000042 C 432.000056 96.706273 335.293791 0.000008 216.000023 0.000008 Z M 216.000023 0.000008 " stroke="#000000" stroke-width="15" stroke-opacity="1" stroke-miterlimit="4"/></g></svg>