<svg xmlns="http://www.w3.org/2000/svg" xmlns:xlink="http://www.w3.org/1999/xlink" width="1440" zoomAndPan="magnify" viewBox="0 0 1080 1079.999946" height="1440" preserveAspectRatio="xMidYMid meet" version="1.0"><defs><clipPath id="9039687fd0"><path d="M 102.597656 84.375 L 977 84.375 L 977 411 L 102.597656 411 Z M 102.597656 84.375 " clip-rule="nonzero"/></clipPath><clipPath id="5f632bf94f"><path d="M 102.597656 669 L 977.097656 669 L 977.097656 995.625 L 102.597656 995.625 Z M 102.597656 669 " clip-rule="nonzero"/></clipPath><clipPath id="8632949b7d"><path d="M 540 0 C 241.765625 0 0 241.765625 0 540 C 0 838.234375 241.765625 1080 540 1080 C 838.234375 1080 1080 838.234375 1080 540 C 1080 241.765625 838.234375 0 540 0 Z M 540 0 " clip-rule="nonzero"/></clipPath></defs><path fill="#fcfcfc" d="M 251.78125 410.445312 C 267.285156 375.960938 289.113281 344.21875 316.636719 316.695312 C 376.222656 257.109375 455.523438 224.207031 539.890625 224.207031 C 624.253906 224.207031 703.453125 257.003906 763.140625 316.695312 C 790.664062 344.21875 812.496094 375.960938 827.996094 410.445312 L 836.75 410.445312 C 820.71875 373.851562 797.941406 340.105469 768.730469 311 C 707.566406 249.835938 626.257812 216.195312 539.890625 216.195312 C 453.519531 216.195312 372.109375 249.941406 311.050781 311.105469 C 281.941406 340.210938 259.058594 373.957031 243.03125 410.550781 L 251.78125 410.550781 Z M 251.78125 410.445312 " fill-opacity="1" fill-rule="nonzero"/><path fill="#fcfcfc" d="M 827.996094 669.445312 C 812.496094 703.929688 790.664062 735.671875 763.140625 763.195312 C 703.453125 822.78125 624.253906 855.683594 539.890625 855.683594 C 455.523438 855.683594 376.328125 822.886719 316.636719 763.195312 C 289.113281 735.671875 267.285156 703.929688 251.78125 669.445312 L 243.03125 669.445312 C 259.058594 706.039062 281.835938 739.785156 311.050781 768.890625 C 372.214844 830.054688 453.519531 863.695312 539.890625 863.695312 C 626.257812 863.695312 707.671875 829.949219 768.730469 768.785156 C 797.835938 739.679688 820.71875 705.933594 836.75 669.339844 L 827.996094 669.339844 Z M 827.996094 669.445312 " fill-opacity="1" fill-rule="nonzero"/><g clip-path="url(#9039687fd0)"><path fill="#fcfcfc" d="M 111.3125 410.445312 C 115.847656 395.257812 121.226562 380.390625 127.449219 365.730469 C 150.015625 312.476562 182.285156 264.597656 223.414062 223.46875 C 264.542969 182.34375 312.417969 150.074219 365.675781 127.503906 C 420.828125 104.199219 479.464844 92.386719 539.890625 92.386719 C 600.316406 92.386719 658.949219 104.199219 714.105469 127.609375 C 767.359375 150.179688 815.238281 182.449219 856.363281 223.574219 C 897.492188 264.703125 929.761719 312.582031 952.328125 365.835938 C 958.550781 380.496094 963.929688 395.46875 968.464844 410.550781 L 976.796875 410.550781 C 971.945312 394.308594 966.25 378.386719 959.605469 362.671875 C 936.617188 308.46875 903.820312 259.746094 861.953125 217.882812 C 820.191406 176.015625 771.472656 143.113281 717.265625 120.230469 C 661.058594 96.394531 601.371094 84.375 539.890625 84.375 C 478.410156 84.375 418.71875 96.394531 362.511719 120.230469 C 308.308594 143.21875 259.585938 176.015625 217.71875 217.882812 C 175.960938 259.640625 143.054688 308.363281 120.171875 362.566406 C 113.527344 378.28125 107.835938 394.203125 102.984375 410.445312 Z M 111.3125 410.445312 " fill-opacity="1" fill-rule="nonzero"/></g><g clip-path="url(#5f632bf94f)"><path fill="#fcfcfc" d="M 968.464844 669.445312 C 963.929688 684.632812 958.550781 699.5 952.332031 714.160156 C 929.761719 767.414062 897.492188 815.292969 856.363281 856.421875 C 815.238281 897.546875 767.359375 929.820312 714.105469 952.386719 C 658.949219 975.691406 600.316406 987.609375 539.890625 987.609375 C 479.464844 987.609375 420.828125 975.796875 365.675781 952.386719 C 312.417969 929.820312 264.542969 897.546875 223.414062 856.421875 C 182.285156 815.292969 150.015625 767.414062 127.449219 714.160156 C 121.226562 699.5 115.847656 684.527344 111.3125 669.445312 L 102.984375 669.445312 C 107.835938 685.6875 113.527344 701.609375 120.171875 717.324219 C 143.160156 771.527344 175.960938 820.25 217.824219 862.117188 C 259.691406 903.980469 308.414062 936.777344 362.617188 959.769531 C 418.824219 983.496094 478.410156 995.625 539.996094 995.625 C 601.582031 995.625 661.164062 983.601562 717.371094 959.769531 C 771.578125 936.777344 820.296875 903.980469 862.164062 862.117188 C 904.03125 820.25 936.828125 771.527344 959.816406 717.324219 C 966.460938 701.609375 972.15625 685.6875 977.007812 669.445312 Z M 968.464844 669.445312 " fill-opacity="1" fill-rule="nonzero"/></g><g clip-path="url(#8632949b7d)"><path stroke-linecap="butt" transform="matrix(0.75, 0, 0, 0.75, 0.000027, -0.00002)" fill="none" stroke-linejoin="miter" d="M 720.00003 0.0000266667 C 322.35416 0.0000266667 -0.000036 322.354223 -0.000036 720.000093 C -0.000036 1117.645962 322.35416 1440.000159 720.00003 1440.000159 C 1117.6459 1440.000159 1440.000096 1117.645962 1440.000096 720.000093 C 1440.000096 322.354223 1117.6459 0.0000266667 720.00003 0.0000266667 Z M 720.00003 0.0000266667 " stroke="#fcfcfc" stroke-width="50" stroke-opacity="1" stroke-miterlimit="4"/></g></svg>